<?xml version="1.0" encoding="UTF-8"?>
<svg xmlns="http://www.w3.org/2000/svg" xmlns:xlink="http://www.w3.org/1999/xlink" width="854" height="480" viewBox="0 0 854 480">
<defs>
<g>
<g id="glyph-0-0">
<path d="M 4.734375 -0.242188 C 4.304688 -0.015625 3.769531 0.0976562 3.125 0.0976562 C 2.292969 0.0976562 1.628906 -0.167969 1.132812 -0.703125 C 0.632812 -1.238281 0.382812 -1.941406 0.382812 -2.808594 C 0.382812 -3.742188 0.664062 -4.496094 1.226562 -5.070312 C 1.785156 -5.644531 2.5 -5.933594 3.359375 -5.933594 C 3.914062 -5.933594 4.371094 -5.851562 4.734375 -5.691406 L 4.734375 -4.964844 C 4.320312 -5.199219 3.855469 -5.3125 3.351562 -5.3125 C 2.683594 -5.3125 2.140625 -5.089844 1.722656 -4.644531 C 1.308594 -4.195312 1.097656 -3.597656 1.097656 -2.847656 C 1.097656 -2.136719 1.292969 -1.570312 1.683594 -1.148438 C 2.070312 -0.726562 2.582031 -0.515625 3.214844 -0.515625 C 3.800781 -0.515625 4.308594 -0.648438 4.734375 -0.90625 Z "/>
</g>
<g id="glyph-0-1">
<path d="M 3.117188 0.0976562 C 2.289062 0.0976562 1.625 -0.175781 1.128906 -0.71875 C 0.632812 -1.265625 0.382812 -1.976562 0.382812 -2.847656 C 0.382812 -3.785156 0.636719 -4.535156 1.144531 -5.09375 C 1.652344 -5.652344 2.339844 -5.933594 3.214844 -5.933594 C 4.019531 -5.933594 4.667969 -5.660156 5.160156 -5.117188 C 5.652344 -4.578125 5.898438 -3.867188 5.898438 -2.992188 C 5.898438 -2.039062 5.648438 -1.285156 5.144531 -0.730469 C 4.636719 -0.179688 3.964844 0.0976562 3.117188 0.0976562 M 3.164062 -5.3125 C 2.550781 -5.3125 2.054688 -5.09375 1.671875 -4.652344 C 1.289062 -4.207031 1.097656 -3.628906 1.097656 -2.910156 C 1.097656 -2.191406 1.285156 -1.613281 1.65625 -1.175781 C 2.03125 -0.734375 2.515625 -0.515625 3.117188 -0.515625 C 3.757812 -0.515625 4.261719 -0.726562 4.628906 -1.144531 C 5 -1.5625 5.183594 -2.144531 5.183594 -2.898438 C 5.183594 -3.667969 5.003906 -4.261719 4.648438 -4.683594 C 4.289062 -5.105469 3.796875 -5.3125 3.164062 -5.3125 Z "/>
</g>
<g id="glyph-0-2">
<path d="M 3.140625 -4.304688 C 3.140625 -4.484375 3.113281 -4.640625 3.058594 -4.773438 C 3.003906 -4.90625 2.925781 -5.015625 2.828125 -5.105469 C 2.734375 -5.191406 2.621094 -5.257812 2.488281 -5.300781 C 2.359375 -5.34375 2.21875 -5.367188 2.066406 -5.367188 C 1.9375 -5.367188 1.808594 -5.347656 1.683594 -5.3125 C 1.558594 -5.277344 1.4375 -5.230469 1.320312 -5.167969 C 1.203125 -5.105469 1.089844 -5.03125 0.980469 -4.945312 C 0.867188 -4.855469 0.765625 -4.761719 0.671875 -4.65625 L 0.671875 -5.371094 C 0.859375 -5.554688 1.066406 -5.691406 1.300781 -5.789062 C 1.53125 -5.882812 1.816406 -5.933594 2.148438 -5.933594 C 2.386719 -5.933594 2.609375 -5.898438 2.8125 -5.828125 C 3.015625 -5.757812 3.191406 -5.660156 3.339844 -5.527344 C 3.488281 -5.394531 3.605469 -5.230469 3.691406 -5.035156 C 3.777344 -4.839844 3.820312 -4.613281 3.820312 -4.363281 C 3.820312 -4.132812 3.792969 -3.921875 3.742188 -3.734375 C 3.6875 -3.546875 3.609375 -3.371094 3.5 -3.207031 C 3.394531 -3.039062 3.257812 -2.882812 3.097656 -2.730469 C 2.933594 -2.578125 2.742188 -2.421875 2.523438 -2.265625 C 2.25 -2.070312 2.023438 -1.902344 1.84375 -1.765625 C 1.667969 -1.628906 1.527344 -1.5 1.421875 -1.378906 C 1.316406 -1.257812 1.246094 -1.136719 1.203125 -1.015625 C 1.160156 -0.894531 1.140625 -0.753906 1.140625 -0.597656 L 4.042969 -0.597656 L 4.042969 0 L 0.445312 0 L 0.445312 -0.289062 C 0.445312 -0.539062 0.46875 -0.757812 0.523438 -0.949219 C 0.578125 -1.136719 0.667969 -1.316406 0.792969 -1.488281 C 0.917969 -1.660156 1.082031 -1.832031 1.285156 -2 C 1.484375 -2.171875 1.734375 -2.367188 2.027344 -2.578125 C 2.238281 -2.730469 2.414062 -2.875 2.558594 -3.015625 C 2.699219 -3.152344 2.8125 -3.292969 2.902344 -3.429688 C 2.988281 -3.570312 3.050781 -3.707031 3.085938 -3.851562 C 3.121094 -3.992188 3.140625 -4.144531 3.140625 -4.304688 Z "/>
</g>
<g id="glyph-0-3">
</g>
<g id="glyph-0-4">
<path d="M 4.859375 -3.90625 C 4.839844 -3.511719 4.730469 -3.203125 4.53125 -2.984375 C 4.332031 -2.761719 4.0625 -2.652344 3.71875 -2.652344 C 3.421875 -2.652344 3.0625 -2.800781 2.640625 -3.09375 C 2.378906 -3.277344 2.160156 -3.367188 1.992188 -3.367188 C 1.613281 -3.367188 1.414062 -3.128906 1.398438 -2.652344 L 0.851562 -2.652344 C 0.863281 -3.042969 0.972656 -3.351562 1.175781 -3.574219 C 1.375 -3.796875 1.648438 -3.90625 1.992188 -3.90625 C 2.28125 -3.90625 2.601562 -3.785156 2.949219 -3.546875 C 3.308594 -3.304688 3.574219 -3.183594 3.75 -3.183594 C 3.917969 -3.183594 4.050781 -3.25 4.148438 -3.382812 C 4.25 -3.515625 4.304688 -3.6875 4.308594 -3.90625 L 4.859375 -3.90625 M 4.859375 -2.234375 C 4.839844 -1.835938 4.730469 -1.527344 4.53125 -1.304688 C 4.332031 -1.085938 4.0625 -0.976562 3.71875 -0.976562 C 3.421875 -0.976562 3.0625 -1.121094 2.640625 -1.414062 C 2.386719 -1.59375 2.171875 -1.683594 1.992188 -1.683594 C 1.613281 -1.683594 1.414062 -1.449219 1.398438 -0.976562 L 0.851562 -0.976562 C 0.863281 -1.363281 0.972656 -1.671875 1.175781 -1.894531 C 1.375 -2.121094 1.648438 -2.234375 1.992188 -2.234375 C 2.28125 -2.234375 2.601562 -2.113281 2.949219 -1.875 C 3.308594 -1.628906 3.574219 -1.503906 3.75 -1.503906 C 3.917969 -1.503906 4.050781 -1.574219 4.148438 -1.707031 C 4.25 -1.84375 4.304688 -2.019531 4.308594 -2.234375 Z "/>
</g>
<g id="glyph-0-5">
<path d="M 3.878906 -1.652344 C 3.878906 -1.390625 3.828125 -1.148438 3.730469 -0.933594 C 3.628906 -0.71875 3.492188 -0.535156 3.308594 -0.378906 C 3.128906 -0.226562 2.914062 -0.109375 2.660156 -0.0234375 C 2.410156 0.0585938 2.128906 0.101562 1.828125 0.101562 C 1.269531 0.101562 0.828125 -0.00390625 0.5 -0.214844 L 0.5 -0.933594 C 0.894531 -0.621094 1.34375 -0.46875 1.851562 -0.46875 C 2.054688 -0.46875 2.238281 -0.492188 2.402344 -0.546875 C 2.566406 -0.597656 2.707031 -0.671875 2.824219 -0.769531 C 2.945312 -0.867188 3.035156 -0.984375 3.097656 -1.121094 C 3.164062 -1.261719 3.195312 -1.417969 3.195312 -1.589844 C 3.195312 -2.351562 2.652344 -2.734375 1.566406 -2.734375 L 1.082031 -2.734375 L 1.082031 -3.300781 L 1.542969 -3.300781 C 2.503906 -3.300781 2.984375 -3.65625 2.984375 -4.375 C 2.984375 -5.035156 2.617188 -5.367188 1.882812 -5.367188 C 1.472656 -5.367188 1.085938 -5.230469 0.722656 -4.953125 L 0.722656 -5.597656 C 1.097656 -5.820312 1.539062 -5.933594 2.050781 -5.933594 C 2.292969 -5.933594 2.515625 -5.898438 2.714844 -5.832031 C 2.910156 -5.761719 3.082031 -5.667969 3.222656 -5.546875 C 3.363281 -5.425781 3.472656 -5.277344 3.550781 -5.105469 C 3.628906 -4.9375 3.667969 -4.746094 3.667969 -4.539062 C 3.667969 -3.773438 3.277344 -3.28125 2.503906 -3.058594 L 2.503906 -3.042969 C 2.699219 -3.023438 2.882812 -2.972656 3.050781 -2.898438 C 3.21875 -2.824219 3.363281 -2.726562 3.488281 -2.609375 C 3.609375 -2.488281 3.703125 -2.347656 3.773438 -2.1875 C 3.84375 -2.027344 3.878906 -1.847656 3.878906 -1.652344 Z "/>
</g>
<g id="glyph-0-6">
<path d="M 3.457031 -5.835938 L 3.457031 -1.980469 L 4.207031 -1.980469 L 4.207031 -1.371094 L 3.457031 -1.371094 L 3.457031 0 L 2.800781 0 L 2.800781 -1.371094 L 0.0585938 -1.371094 L 0.0585938 -1.949219 C 0.3125 -2.238281 0.570312 -2.542969 0.828125 -2.871094 C 1.089844 -3.199219 1.339844 -3.527344 1.578125 -3.867188 C 1.8125 -4.203125 2.035156 -4.539062 2.234375 -4.871094 C 2.4375 -5.207031 2.609375 -5.527344 2.746094 -5.835938 L 3.457031 -5.835938 M 0.808594 -1.980469 L 2.800781 -1.980469 L 2.800781 -4.839844 C 2.597656 -4.484375 2.402344 -4.164062 2.222656 -3.886719 C 2.039062 -3.605469 1.867188 -3.351562 1.703125 -3.125 C 1.539062 -2.898438 1.382812 -2.691406 1.234375 -2.507812 C 1.082031 -2.320312 0.941406 -2.148438 0.808594 -1.980469 Z "/>
</g>
<g id="glyph-0-7">
<path d="M 4.148438 -2.941406 C 4.148438 -2.453125 4.105469 -2.019531 4.019531 -1.644531 C 3.929688 -1.265625 3.800781 -0.949219 3.636719 -0.691406 C 3.46875 -0.429688 3.265625 -0.234375 3.019531 -0.101562 C 2.777344 0.0351562 2.503906 0.101562 2.191406 0.101562 C 1.898438 0.101562 1.640625 0.0390625 1.410156 -0.0898438 C 1.179688 -0.21875 0.988281 -0.410156 0.828125 -0.65625 C 0.671875 -0.902344 0.554688 -1.207031 0.472656 -1.566406 C 0.390625 -1.925781 0.351562 -2.335938 0.351562 -2.800781 C 0.351562 -3.308594 0.394531 -3.757812 0.476562 -4.148438 C 0.5625 -4.539062 0.6875 -4.867188 0.855469 -5.132812 C 1.019531 -5.398438 1.226562 -5.597656 1.472656 -5.730469 C 1.714844 -5.867188 1.996094 -5.933594 2.316406 -5.933594 C 3.539062 -5.933594 4.148438 -4.9375 4.148438 -2.941406 M 3.464844 -2.875 C 3.464844 -4.535156 3.070312 -5.367188 2.28125 -5.367188 C 1.449219 -5.367188 1.035156 -4.523438 1.035156 -2.832031 C 1.035156 -1.257812 1.441406 -0.46875 2.257812 -0.46875 C 3.0625 -0.46875 3.464844 -1.269531 3.464844 -2.875 Z "/>
</g>
<g id="glyph-0-8">
<path d="M 4.132812 0 L 3.199219 0 L 1.359375 -2 L 1.34375 -2 L 1.34375 0 L 0.675781 0 L 0.675781 -6.167969 L 1.34375 -6.167969 L 1.34375 -2.257812 L 1.359375 -2.257812 L 3.109375 -4.167969 L 3.984375 -4.167969 L 2.050781 -2.15625 Z "/>
</g>
<g id="glyph-0-9">
<path d="M 4.230469 -0.332031 C 4.230469 1.195312 3.5 1.960938 2.035156 1.960938 C 1.519531 1.960938 1.070312 1.863281 0.683594 1.667969 L 0.683594 1 C 1.152344 1.261719 1.601562 1.390625 2.027344 1.390625 C 3.050781 1.390625 3.5625 0.847656 3.5625 -0.242188 L 3.5625 -0.699219 L 3.546875 -0.699219 C 3.230469 -0.167969 2.753906 0.0976562 2.117188 0.0976562 C 1.597656 0.0976562 1.179688 -0.0859375 0.863281 -0.457031 C 0.546875 -0.828125 0.390625 -1.324219 0.390625 -1.949219 C 0.390625 -2.65625 0.5625 -3.21875 0.902344 -3.636719 C 1.242188 -4.054688 1.707031 -4.265625 2.300781 -4.265625 C 2.859375 -4.265625 3.277344 -4.039062 3.546875 -3.589844 L 3.5625 -3.589844 L 3.5625 -4.167969 L 4.230469 -4.167969 L 4.230469 -0.332031 M 3.5625 -1.882812 L 3.5625 -2.5 C 3.5625 -2.828125 3.453125 -3.113281 3.230469 -3.347656 C 3.003906 -3.585938 2.726562 -3.703125 2.390625 -3.703125 C 1.980469 -3.703125 1.65625 -3.554688 1.425781 -3.253906 C 1.191406 -2.953125 1.074219 -2.535156 1.074219 -1.992188 C 1.074219 -1.53125 1.1875 -1.160156 1.410156 -0.882812 C 1.632812 -0.601562 1.929688 -0.464844 2.300781 -0.464844 C 2.671875 -0.464844 2.976562 -0.597656 3.210938 -0.863281 C 3.445312 -1.128906 3.5625 -1.46875 3.5625 -1.882812 Z "/>
</g>
</g>
</defs>
<g fill="rgb(100%, 100%, 100%)" fill-opacity="1">
<use xlink:href="#glyph-0-0" x="30" y="28.992188"/>
<use xlink:href="#glyph-0-1" x="35" y="28.992188"/>
<use xlink:href="#glyph-0-2" x="41" y="28.992188"/>
<use xlink:href="#glyph-0-3" x="45" y="28.992188"/>
<use xlink:href="#glyph-0-4" x="47" y="28.992188"/>
<use xlink:href="#glyph-0-3" x="53" y="28.992188"/>
<use xlink:href="#glyph-0-5" x="55" y="28.992188"/>
<use xlink:href="#glyph-0-6" x="59" y="28.992188"/>
<use xlink:href="#glyph-0-7" x="63" y="28.992188"/>
<use xlink:href="#glyph-0-7" x="67" y="28.992188"/>
<use xlink:href="#glyph-0-3" x="71" y="28.992188"/>
<use xlink:href="#glyph-0-8" x="73" y="28.992188"/>
<use xlink:href="#glyph-0-9" x="77" y="28.992188"/>
</g>
</svg>
