<?xml version="1.0" encoding="UTF-8"?>
<svg xmlns="http://www.w3.org/2000/svg" xmlns:xlink="http://www.w3.org/1999/xlink" width="854" height="480" viewBox="0 0 854 480">
<defs>
<g>
<g id="glyph-0-0">
<path d="M 4.921875 -0.269531 C 4.472656 0 3.941406 0.136719 3.328125 0.136719 C 2.496094 0.136719 1.824219 -0.132812 1.3125 -0.675781 C 0.800781 -1.214844 0.546875 -1.917969 0.546875 -2.78125 C 0.546875 -3.742188 0.820312 -4.511719 1.371094 -5.09375 C 1.921875 -5.679688 2.660156 -5.96875 3.578125 -5.96875 C 4.089844 -5.96875 4.542969 -5.875 4.933594 -5.683594 L 4.933594 -4.726562 C 4.5 -5.03125 4.035156 -5.183594 3.542969 -5.183594 C 2.945312 -5.183594 2.457031 -4.96875 2.078125 -4.542969 C 1.695312 -4.117188 1.503906 -3.554688 1.503906 -2.859375 C 1.503906 -2.175781 1.683594 -1.636719 2.042969 -1.242188 C 2.402344 -0.847656 2.882812 -0.648438 3.484375 -0.648438 C 3.996094 -0.648438 4.472656 -0.820312 4.921875 -1.15625 Z "/>
</g>
<g id="glyph-0-1">
<path d="M 3.382812 0.136719 C 2.523438 0.136719 1.832031 -0.136719 1.320312 -0.679688 C 0.804688 -1.226562 0.546875 -1.949219 0.546875 -2.847656 C 0.546875 -3.828125 0.816406 -4.59375 1.351562 -5.144531 C 1.886719 -5.695312 2.609375 -5.96875 3.519531 -5.96875 C 4.390625 -5.96875 5.070312 -5.703125 5.558594 -5.167969 C 6.046875 -4.632812 6.289062 -3.890625 6.289062 -2.9375 C 6.289062 -2.007812 6.027344 -1.265625 5.5 -0.703125 C 4.972656 -0.144531 4.269531 0.136719 3.382812 0.136719 M 3.453125 -5.183594 C 2.851562 -5.183594 2.378906 -4.980469 2.027344 -4.570312 C 1.679688 -4.164062 1.503906 -3.601562 1.503906 -2.882812 C 1.503906 -2.191406 1.679688 -1.644531 2.035156 -1.246094 C 2.386719 -0.847656 2.859375 -0.648438 3.453125 -0.648438 C 4.054688 -0.648438 4.519531 -0.84375 4.84375 -1.234375 C 5.167969 -1.628906 5.332031 -2.183594 5.332031 -2.90625 C 5.332031 -3.632812 5.167969 -4.195312 4.84375 -4.589844 C 4.519531 -4.988281 4.054688 -5.183594 3.453125 -5.183594 Z "/>
</g>
<g id="glyph-0-2">
<path d="M 0.59375 -0.210938 L 0.59375 -1.214844 C 1.101562 -0.835938 1.660156 -0.648438 2.273438 -0.648438 C 3.09375 -0.648438 3.503906 -0.921875 3.503906 -1.46875 C 3.503906 -1.625 3.46875 -1.757812 3.398438 -1.867188 C 3.328125 -1.972656 3.234375 -2.070312 3.113281 -2.152344 C 2.992188 -2.238281 2.851562 -2.3125 2.691406 -2.378906 C 2.53125 -2.445312 2.355469 -2.515625 2.171875 -2.585938 C 1.914062 -2.6875 1.683594 -2.792969 1.488281 -2.898438 C 1.292969 -3 1.128906 -3.117188 1 -3.25 C 0.867188 -3.382812 0.769531 -3.53125 0.703125 -3.695312 C 0.636719 -3.863281 0.605469 -4.058594 0.605469 -4.285156 C 0.605469 -4.558594 0.667969 -4.800781 0.792969 -5.011719 C 0.917969 -5.222656 1.085938 -5.398438 1.292969 -5.539062 C 1.503906 -5.683594 1.742188 -5.789062 2.007812 -5.863281 C 2.277344 -5.933594 2.550781 -5.96875 2.835938 -5.96875 C 3.34375 -5.96875 3.792969 -5.882812 4.191406 -5.707031 L 4.191406 -4.761719 C 3.761719 -5.042969 3.269531 -5.183594 2.710938 -5.183594 C 2.535156 -5.183594 2.378906 -5.164062 2.238281 -5.125 C 2.097656 -5.085938 1.976562 -5.027344 1.878906 -4.957031 C 1.777344 -4.882812 1.699219 -4.796875 1.644531 -4.695312 C 1.589844 -4.597656 1.5625 -4.484375 1.5625 -4.363281 C 1.5625 -4.210938 1.589844 -4.085938 1.644531 -3.980469 C 1.699219 -3.878906 1.777344 -3.789062 1.886719 -3.707031 C 1.992188 -3.628906 2.121094 -3.554688 2.273438 -3.492188 C 2.425781 -3.425781 2.597656 -3.355469 2.792969 -3.28125 C 3.050781 -3.183594 3.28125 -3.082031 3.484375 -2.976562 C 3.691406 -2.871094 3.867188 -2.753906 4.011719 -2.625 C 4.15625 -2.492188 4.265625 -2.339844 4.34375 -2.171875 C 4.421875 -2 4.460938 -1.796875 4.460938 -1.5625 C 4.460938 -1.273438 4.398438 -1.023438 4.269531 -0.808594 C 4.140625 -0.597656 3.972656 -0.417969 3.757812 -0.277344 C 3.546875 -0.136719 3.300781 -0.0351562 3.023438 0.0351562 C 2.746094 0.101562 2.457031 0.136719 2.152344 0.136719 C 1.554688 0.136719 1.03125 0.0195312 0.59375 -0.210938 Z "/>
</g>
<g id="glyph-0-3">
<path d="M 3.652344 -0.0585938 C 3.429688 0.0664062 3.140625 0.125 2.78125 0.125 C 1.757812 0.125 1.246094 -0.445312 1.246094 -1.582031 L 1.246094 -5.035156 L 0.246094 -5.035156 L 0.246094 -5.832031 L 1.246094 -5.832031 L 1.246094 -7.257812 L 2.183594 -7.558594 L 2.183594 -5.832031 L 3.652344 -5.832031 L 3.652344 -5.035156 L 2.183594 -5.035156 L 2.183594 -1.75 C 2.183594 -1.359375 2.25 -1.078125 2.382812 -0.910156 C 2.515625 -0.746094 2.734375 -0.660156 3.042969 -0.660156 C 3.277344 -0.660156 3.480469 -0.726562 3.652344 -0.855469 Z "/>
</g>
<g id="glyph-0-4">
</g>
<g id="glyph-0-5">
<path d="M 6.675781 -4.238281 L 1.320312 -4.238281 L 1.320312 -4.992188 L 6.675781 -4.992188 L 6.675781 -4.238281 M 6.675781 -1.8125 L 1.320312 -1.8125 L 1.320312 -2.5625 L 6.675781 -2.5625 Z "/>
</g>
<g id="glyph-0-6">
<path d="M 6.632812 -0.34375 C 6.027344 -0.0234375 5.273438 0.136719 4.375 0.136719 C 3.210938 0.136719 2.28125 -0.238281 1.582031 -0.984375 C 0.886719 -1.734375 0.535156 -2.714844 0.535156 -3.929688 C 0.535156 -5.238281 0.929688 -6.292969 1.714844 -7.097656 C 2.5 -7.902344 3.496094 -8.304688 4.707031 -8.304688 C 5.480469 -8.304688 6.121094 -8.195312 6.632812 -7.96875 L 6.632812 -6.949219 C 6.046875 -7.277344 5.398438 -7.441406 4.695312 -7.441406 C 3.757812 -7.441406 2.996094 -7.125 2.414062 -6.5 C 1.828125 -5.875 1.539062 -5.035156 1.539062 -3.988281 C 1.539062 -2.992188 1.8125 -2.199219 2.355469 -1.609375 C 2.902344 -1.019531 3.617188 -0.722656 4.5 -0.722656 C 5.320312 -0.722656 6.03125 -0.90625 6.632812 -1.269531 Z "/>
</g>
<g id="glyph-0-7">
<path d="M 9.226562 0 L 8.292969 0 L 8.292969 -3.351562 C 8.292969 -3.996094 8.195312 -4.460938 7.996094 -4.75 C 7.796875 -5.039062 7.460938 -5.183594 6.988281 -5.183594 C 6.589844 -5.183594 6.253906 -5 5.972656 -4.636719 C 5.695312 -4.273438 5.554688 -3.835938 5.554688 -3.328125 L 5.554688 0 L 4.621094 0 L 4.621094 -3.464844 C 4.621094 -4.609375 4.175781 -5.183594 3.292969 -5.183594 C 2.882812 -5.183594 2.542969 -5.011719 2.277344 -4.667969 C 2.011719 -4.324219 1.878906 -3.878906 1.878906 -3.328125 L 1.878906 0 L 0.945312 0 L 0.945312 -5.832031 L 1.878906 -5.832031 L 1.878906 -4.910156 L 1.902344 -4.910156 C 2.316406 -5.617188 2.921875 -5.96875 3.714844 -5.96875 C 4.113281 -5.96875 4.460938 -5.859375 4.757812 -5.636719 C 5.054688 -5.414062 5.257812 -5.125 5.367188 -4.761719 C 5.800781 -5.566406 6.445312 -5.96875 7.304688 -5.96875 C 8.585938 -5.96875 9.226562 -5.179688 9.226562 -3.59375 Z "/>
</g>
<g id="glyph-0-8">
<path d="M 6.460938 -1.46875 L 5.925781 -0.933594 L 3.988281 -2.871094 L 2.0625 -0.933594 L 1.527344 -1.46875 L 3.464844 -3.394531 L 1.527344 -5.332031 L 2.0625 -5.867188 L 3.988281 -3.929688 L 5.925781 -5.867188 L 6.460938 -5.332031 L 4.523438 -3.394531 Z "/>
</g>
<g id="glyph-0-9">
<path d="M 5.789062 0 L 4.476562 0 L 1.902344 -2.804688 L 1.878906 -2.804688 L 1.878906 0 L 0.945312 0 L 0.945312 -8.636719 L 1.878906 -8.636719 L 1.878906 -3.160156 L 1.902344 -3.160156 L 4.351562 -5.832031 L 5.578125 -5.832031 L 2.871094 -3.019531 Z "/>
</g>
<g id="glyph-0-10">
<path d="M 5.925781 -0.46875 C 5.925781 1.675781 4.898438 2.746094 2.847656 2.746094 C 2.125 2.746094 1.496094 2.609375 0.957031 2.335938 L 0.957031 1.402344 C 1.613281 1.765625 2.242188 1.949219 2.835938 1.949219 C 4.273438 1.949219 4.988281 1.183594 4.992188 -0.34375 L 4.992188 -0.980469 L 4.96875 -0.980469 C 4.523438 -0.234375 3.855469 0.136719 2.960938 0.136719 C 2.238281 0.136719 1.652344 -0.121094 1.210938 -0.640625 C 0.769531 -1.160156 0.546875 -1.855469 0.546875 -2.730469 C 0.546875 -3.71875 0.785156 -4.507812 1.261719 -5.09375 C 1.738281 -5.675781 2.390625 -5.96875 3.21875 -5.96875 C 4.003906 -5.96875 4.585938 -5.65625 4.96875 -5.023438 L 4.992188 -5.023438 L 4.992188 -5.832031 L 5.925781 -5.832031 L 5.925781 -0.46875 M 4.992188 -2.636719 L 4.992188 -3.496094 C 4.988281 -3.960938 4.832031 -4.359375 4.519531 -4.6875 C 4.207031 -5.019531 3.816406 -5.183594 3.351562 -5.183594 C 2.773438 -5.183594 2.320312 -4.972656 1.992188 -4.554688 C 1.667969 -4.136719 1.503906 -3.546875 1.503906 -2.792969 C 1.503906 -2.140625 1.660156 -1.621094 1.972656 -1.234375 C 2.289062 -0.84375 2.703125 -0.648438 3.21875 -0.648438 C 3.742188 -0.648438 4.167969 -0.835938 4.496094 -1.207031 C 4.824219 -1.578125 4.988281 -2.054688 4.992188 -2.636719 Z "/>
</g>
<g id="glyph-0-11">
<path d="M 5.632812 -2.683594 L 1.515625 -2.683594 C 1.53125 -2.035156 1.707031 -1.53125 2.039062 -1.179688 C 2.375 -0.824219 2.832031 -0.648438 3.417969 -0.648438 C 4.074219 -0.648438 4.679688 -0.867188 5.230469 -1.296875 L 5.230469 -0.421875 C 4.714844 -0.0507812 4.039062 0.136719 3.195312 0.136719 C 2.371094 0.136719 1.722656 -0.128906 1.253906 -0.65625 C 0.78125 -1.1875 0.546875 -1.933594 0.546875 -2.894531 C 0.546875 -3.800781 0.804688 -4.542969 1.320312 -5.113281 C 1.832031 -5.683594 2.472656 -5.96875 3.234375 -5.96875 C 4 -5.96875 4.589844 -5.722656 5.007812 -5.230469 C 5.425781 -4.734375 5.632812 -4.050781 5.632812 -3.171875 L 5.632812 -2.683594 M 4.675781 -3.476562 C 4.671875 -4.015625 4.542969 -4.433594 4.285156 -4.734375 C 4.03125 -5.035156 3.675781 -5.183594 3.21875 -5.183594 C 2.777344 -5.183594 2.402344 -5.027344 2.097656 -4.710938 C 1.789062 -4.394531 1.597656 -3.984375 1.527344 -3.476562 Z "/>
</g>
<g id="glyph-0-12">
<path d="M 1.902344 -0.84375 L 1.878906 -0.84375 L 1.878906 0 L 0.945312 0 L 0.945312 -8.636719 L 1.878906 -8.636719 L 1.878906 -4.808594 L 1.902344 -4.808594 C 2.363281 -5.582031 3.035156 -5.96875 3.917969 -5.96875 C 4.667969 -5.96875 5.253906 -5.707031 5.675781 -5.1875 C 6.101562 -4.664062 6.3125 -3.964844 6.3125 -3.085938 C 6.3125 -2.113281 6.074219 -1.332031 5.601562 -0.742188 C 5.125 -0.15625 4.476562 0.136719 3.652344 0.136719 C 2.878906 0.136719 2.296875 -0.191406 1.902344 -0.84375 M 1.878906 -3.195312 L 1.878906 -2.382812 C 1.878906 -1.898438 2.035156 -1.488281 2.351562 -1.152344 C 2.664062 -0.816406 3.0625 -0.648438 3.542969 -0.648438 C 4.109375 -0.648438 4.550781 -0.867188 4.875 -1.296875 C 5.195312 -1.730469 5.355469 -2.332031 5.355469 -3.105469 C 5.355469 -3.753906 5.203125 -4.261719 4.90625 -4.632812 C 4.605469 -5 4.199219 -5.183594 3.6875 -5.183594 C 3.144531 -5.183594 2.707031 -4.996094 2.375 -4.617188 C 2.046875 -4.238281 1.878906 -3.765625 1.878906 -3.195312 Z "/>
</g>
<g id="glyph-0-13">
<path d="M 5.789062 0 L 4.851562 0 L 4.851562 -3.328125 C 4.851562 -4.566406 4.402344 -5.183594 3.496094 -5.183594 C 3.03125 -5.183594 2.644531 -5.007812 2.339844 -4.65625 C 2.03125 -4.304688 1.878906 -3.863281 1.878906 -3.328125 L 1.878906 0 L 0.945312 0 L 0.945312 -5.832031 L 1.878906 -5.832031 L 1.878906 -4.863281 L 1.902344 -4.863281 C 2.34375 -5.601562 2.980469 -5.96875 3.816406 -5.96875 C 4.453125 -5.96875 4.941406 -5.765625 5.28125 -5.351562 C 5.617188 -4.941406 5.789062 -4.34375 5.789062 -3.566406 Z "/>
</g>
<g id="glyph-0-14">
<path d="M 5.925781 0 L 4.992188 0 L 4.992188 -0.992188 L 4.96875 -0.992188 C 4.535156 -0.238281 3.867188 0.136719 2.960938 0.136719 C 2.230469 0.136719 1.644531 -0.125 1.203125 -0.648438 C 0.765625 -1.167969 0.546875 -1.878906 0.546875 -2.78125 C 0.546875 -3.746094 0.789062 -4.515625 1.277344 -5.097656 C 1.761719 -5.679688 2.410156 -5.96875 3.21875 -5.96875 C 4.019531 -5.96875 4.601562 -5.65625 4.96875 -5.023438 L 4.992188 -5.023438 L 4.992188 -8.636719 L 5.925781 -8.636719 L 5.925781 0 M 4.992188 -2.636719 L 4.992188 -3.496094 C 4.988281 -3.96875 4.835938 -4.367188 4.523438 -4.695312 C 4.210938 -5.019531 3.816406 -5.183594 3.339844 -5.183594 C 2.769531 -5.183594 2.320312 -4.976562 1.992188 -4.558594 C 1.667969 -4.140625 1.503906 -3.5625 1.503906 -2.824219 C 1.503906 -2.152344 1.660156 -1.621094 1.972656 -1.234375 C 2.289062 -0.84375 2.707031 -0.648438 3.234375 -0.648438 C 3.757812 -0.648438 4.179688 -0.835938 4.503906 -1.214844 C 4.828125 -1.589844 4.988281 -2.0625 4.992188 -2.636719 Z "/>
</g>
<g id="glyph-0-15">
<path d="M 9.398438 0 L 8.449219 0 L 8.449219 -5.480469 C 8.449219 -5.914062 8.476562 -6.441406 8.527344 -7.070312 L 8.503906 -7.070312 C 8.414062 -6.699219 8.332031 -6.4375 8.261719 -6.277344 L 5.46875 0 L 5 0 L 2.214844 -6.230469 C 2.136719 -6.414062 2.054688 -6.695312 1.972656 -7.070312 L 1.949219 -7.070312 C 1.980469 -6.742188 1.992188 -6.210938 1.992188 -5.46875 L 1.992188 0 L 1.070312 0 L 1.070312 -8.167969 L 2.335938 -8.167969 L 4.84375 -2.472656 C 5.035156 -2.035156 5.160156 -1.710938 5.21875 -1.492188 L 5.253906 -1.492188 C 5.414062 -1.941406 5.546875 -2.273438 5.644531 -2.496094 L 8.203125 -8.167969 L 9.398438 -8.167969 Z "/>
</g>
<g id="glyph-0-16">
<path d="M 4.632812 -8.167969 L 0.710938 1.355469 L -0.160156 1.355469 L 3.75 -8.167969 Z "/>
</g>
<g id="glyph-0-17">
<path d="M 3.394531 1.855469 L 2.5625 1.855469 C 1.386719 0.511719 0.796875 -1.144531 0.796875 -3.117188 C 0.796875 -5.09375 1.386719 -6.777344 2.5625 -8.167969 L 3.40625 -8.167969 C 2.214844 -6.726562 1.617188 -5.046875 1.617188 -3.128906 C 1.617188 -1.226562 2.210938 0.4375 3.394531 1.855469 Z "/>
</g>
<g id="glyph-0-18">
<path d="M 6.574219 -5.082031 L 5.117188 -5.082031 C 5.65625 -4.390625 5.925781 -3.625 5.925781 -2.785156 C 5.925781 -1.921875 5.683594 -1.222656 5.207031 -0.679688 C 4.726562 -0.136719 4.085938 0.136719 3.28125 0.136719 C 2.449219 0.136719 1.785156 -0.136719 1.292969 -0.679688 C 0.800781 -1.226562 0.550781 -1.953125 0.550781 -2.859375 C 0.550781 -4.84375 1.542969 -5.832031 3.519531 -5.832031 L 6.574219 -5.832031 L 6.574219 -5.082031 M 4.273438 -5.082031 L 3.601562 -5.082031 C 2.210938 -5.082031 1.515625 -4.328125 1.515625 -2.820312 C 1.515625 -2.167969 1.675781 -1.644531 1.996094 -1.25 C 2.316406 -0.855469 2.746094 -0.660156 3.28125 -0.660156 C 3.800781 -0.660156 4.210938 -0.859375 4.515625 -1.257812 C 4.816406 -1.652344 4.96875 -2.183594 4.96875 -2.847656 C 4.96875 -3.683594 4.734375 -4.429688 4.273438 -5.082031 Z "/>
</g>
<g id="glyph-0-19">
<path d="M 5.589844 -5.832031 L 2.90625 0.933594 C 2.425781 2.140625 1.753906 2.746094 0.890625 2.746094 C 0.644531 2.746094 0.441406 2.722656 0.277344 2.671875 L 0.277344 1.835938 C 0.480469 1.902344 0.664062 1.9375 0.832031 1.9375 C 1.300781 1.9375 1.65625 1.65625 1.890625 1.09375 L 2.359375 -0.0117188 L 0.078125 -5.832031 L 1.117188 -5.832031 L 2.695312 -1.34375 C 2.714844 -1.289062 2.753906 -1.140625 2.8125 -0.898438 L 2.847656 -0.898438 C 2.867188 -0.992188 2.90625 -1.136719 2.960938 -1.332031 L 4.621094 -5.832031 Z "/>
</g>
<g id="glyph-0-20">
<path d="M 1.070312 0 L 1.070312 -8.167969 L 3.328125 -8.167969 C 6.207031 -8.167969 7.644531 -6.839844 7.644531 -4.1875 C 7.644531 -2.925781 7.246094 -1.914062 6.445312 -1.148438 C 5.644531 -0.382812 4.578125 0 3.234375 0 L 1.070312 0 M 2.027344 -7.304688 L 2.027344 -0.867188 L 3.246094 -0.867188 C 4.316406 -0.867188 5.152344 -1.152344 5.746094 -1.726562 C 6.34375 -2.300781 6.640625 -3.113281 6.640625 -4.164062 C 6.640625 -6.257812 5.53125 -7.304688 3.304688 -7.304688 Z "/>
</g>
<g id="glyph-0-21">
<path d="M 3.75 -5.035156 L 0.59375 -5.035156 L 0.59375 -5.503906 C 0.59375 -5.734375 0.648438 -5.941406 0.761719 -6.125 C 0.871094 -6.3125 1.011719 -6.484375 1.183594 -6.640625 C 1.351562 -6.800781 1.535156 -6.953125 1.730469 -7.09375 C 1.929688 -7.238281 2.113281 -7.382812 2.28125 -7.535156 C 2.449219 -7.6875 2.589844 -7.851562 2.703125 -8.019531 C 2.816406 -8.191406 2.871094 -8.382812 2.871094 -8.597656 C 2.871094 -8.816406 2.800781 -8.988281 2.65625 -9.109375 C 2.515625 -9.230469 2.324219 -9.292969 2.085938 -9.292969 C 1.632812 -9.292969 1.222656 -9.097656 0.855469 -8.710938 L 0.855469 -9.558594 C 1.167969 -9.847656 1.617188 -9.992188 2.191406 -9.992188 C 2.40625 -9.992188 2.601562 -9.960938 2.78125 -9.894531 C 2.957031 -9.832031 3.113281 -9.738281 3.242188 -9.617188 C 3.371094 -9.5 3.472656 -9.355469 3.542969 -9.1875 C 3.617188 -9.023438 3.652344 -8.832031 3.652344 -8.625 C 3.652344 -8.34375 3.597656 -8.09375 3.488281 -7.875 C 3.382812 -7.65625 3.246094 -7.460938 3.082031 -7.285156 C 2.917969 -7.109375 2.742188 -6.957031 2.550781 -6.820312 C 2.363281 -6.683594 2.1875 -6.554688 2.023438 -6.441406 C 1.859375 -6.324219 1.722656 -6.214844 1.613281 -6.109375 C 1.507812 -6.003906 1.453125 -5.898438 1.453125 -5.792969 L 1.453125 -5.730469 L 3.75 -5.730469 Z "/>
</g>
<g id="glyph-0-22">
<path d="M 0.96875 1.855469 L 0.136719 1.855469 C 1.320312 0.4375 1.914062 -1.226562 1.914062 -3.128906 C 1.914062 -5.046875 1.316406 -6.726562 0.125 -8.167969 L 0.96875 -8.167969 C 2.152344 -6.777344 2.746094 -5.09375 2.746094 -3.117188 C 2.746094 -1.144531 2.152344 0.511719 0.96875 1.855469 Z "/>
</g>
</g>
</defs>
<g fill="rgb(100%, 100%, 100%)" fill-opacity="1">
<use xlink:href="#glyph-0-0" x="30" y="32.588867"/>
<use xlink:href="#glyph-0-1" x="35" y="32.588867"/>
<use xlink:href="#glyph-0-2" x="42" y="32.588867"/>
<use xlink:href="#glyph-0-3" x="47" y="32.588867"/>
<use xlink:href="#glyph-0-4" x="51" y="32.588867"/>
<use xlink:href="#glyph-0-5" x="54" y="32.588867"/>
<use xlink:href="#glyph-0-4" x="62" y="32.588867"/>
<use xlink:href="#glyph-0-6" x="65" y="32.588867"/>
<use xlink:href="#glyph-0-7" x="72" y="32.588867"/>
<use xlink:href="#glyph-0-4" x="82" y="32.588867"/>
<use xlink:href="#glyph-0-8" x="85" y="32.588867"/>
<use xlink:href="#glyph-0-4" x="93" y="32.588867"/>
<use xlink:href="#glyph-0-9" x="96" y="32.588867"/>
<use xlink:href="#glyph-0-10" x="102" y="32.588867"/>
<use xlink:href="#glyph-0-11" x="109" y="32.588867"/>
<use xlink:href="#glyph-0-1" x="115" y="32.588867"/>
<use xlink:href="#glyph-0-7" x="122" y="32.588867"/>
<use xlink:href="#glyph-0-4" x="132" y="32.588867"/>
<use xlink:href="#glyph-0-8" x="135" y="32.588867"/>
<use xlink:href="#glyph-0-4" x="143" y="32.588867"/>
<use xlink:href="#glyph-0-9" x="146" y="32.588867"/>
<use xlink:href="#glyph-0-12" x="152" y="32.588867"/>
<use xlink:href="#glyph-0-11" x="159" y="32.588867"/>
<use xlink:href="#glyph-0-13" x="165" y="32.588867"/>
<use xlink:href="#glyph-0-14" x="172" y="32.588867"/>
<use xlink:href="#glyph-0-4" x="179" y="32.588867"/>
<use xlink:href="#glyph-0-8" x="182" y="32.588867"/>
<use xlink:href="#glyph-0-4" x="190" y="32.588867"/>
<use xlink:href="#glyph-0-15" x="193" y="32.588867"/>
<use xlink:href="#glyph-0-4" x="203" y="32.588867"/>
<use xlink:href="#glyph-0-16" x="206" y="32.588867"/>
<use xlink:href="#glyph-0-4" x="211" y="32.588867"/>
<use xlink:href="#glyph-0-17" x="214" y="32.588867"/>
</g>
<g fill="rgb(100%, 100%, 100%)" fill-opacity="1">
<use xlink:href="#glyph-0-18" x="218" y="32.588867"/>
</g>
<g fill="rgb(100%, 100%, 100%)" fill-opacity="1">
<use xlink:href="#glyph-0-19" x="225" y="32.588867"/>
<use xlink:href="#glyph-0-4" x="231" y="32.588867"/>
<use xlink:href="#glyph-0-8" x="234" y="32.588867"/>
<use xlink:href="#glyph-0-4" x="242" y="32.588867"/>
<use xlink:href="#glyph-0-20" x="245" y="32.588867"/>
<use xlink:href="#glyph-0-21" x="253" y="32.588867"/>
<use xlink:href="#glyph-0-22" x="257" y="32.588867"/>
</g>
</svg>
