<?xml version="1.0" encoding="UTF-8"?>
<svg xmlns="http://www.w3.org/2000/svg" xmlns:xlink="http://www.w3.org/1999/xlink" width="854" height="480" viewBox="0 0 854 480">
<defs>
<g>
<g id="glyph-0-0">
<path d="M 1.8125 -1.769531 C 1.511719 -1.769531 1.253906 -1.875 1.039062 -2.085938 C 0.820312 -2.300781 0.710938 -2.554688 0.710938 -2.855469 C 0.710938 -3.152344 0.820312 -3.414062 1.039062 -3.628906 C 1.253906 -3.847656 1.511719 -3.957031 1.8125 -3.957031 C 2.117188 -3.957031 2.371094 -3.851562 2.582031 -3.632812 C 2.792969 -3.414062 2.898438 -3.15625 2.898438 -2.855469 C 2.898438 -2.554688 2.792969 -2.300781 2.582031 -2.085938 C 2.371094 -1.875 2.117188 -1.769531 1.8125 -1.769531 Z "/>
</g>
<g id="glyph-0-1">
</g>
<g id="glyph-0-2">
<path d="M 5.832031 0 L 4.941406 0 L 1.734375 -4.960938 C 1.65625 -5.085938 1.589844 -5.214844 1.535156 -5.351562 L 1.511719 -5.351562 C 1.535156 -5.21875 1.546875 -4.933594 1.546875 -4.496094 L 1.546875 0 L 0.816406 0 L 0.816406 -6.222656 L 1.761719 -6.222656 L 4.878906 -1.339844 C 5.007812 -1.136719 5.09375 -1 5.128906 -0.925781 L 5.148438 -0.925781 C 5.117188 -1.105469 5.105469 -1.410156 5.105469 -1.839844 L 5.105469 -6.222656 L 5.832031 -6.222656 Z "/>
</g>
<g id="glyph-0-3">
<path d="M 1.085938 -5.574219 C 0.957031 -5.574219 0.847656 -5.617188 0.757812 -5.703125 C 0.667969 -5.789062 0.625 -5.898438 0.625 -6.035156 C 0.625 -6.167969 0.667969 -6.277344 0.757812 -6.367188 C 0.847656 -6.453125 0.957031 -6.496094 1.085938 -6.496094 C 1.214844 -6.496094 1.324219 -6.453125 1.417969 -6.367188 C 1.507812 -6.277344 1.554688 -6.167969 1.554688 -6.035156 C 1.554688 -5.90625 1.507812 -5.796875 1.417969 -5.707031 C 1.324219 -5.617188 1.214844 -5.574219 1.085938 -5.574219 M 1.433594 0 L 0.71875 0 L 0.71875 -4.445312 L 1.433594 -4.445312 Z "/>
</g>
<g id="glyph-0-4">
<path d="M 3.75 -0.203125 C 3.410156 0 3.003906 0.105469 2.535156 0.105469 C 1.902344 0.105469 1.390625 -0.101562 1 -0.515625 C 0.609375 -0.925781 0.417969 -1.460938 0.417969 -2.117188 C 0.417969 -2.851562 0.625 -3.4375 1.046875 -3.882812 C 1.464844 -4.328125 2.027344 -4.550781 2.726562 -4.550781 C 3.117188 -4.550781 3.460938 -4.476562 3.757812 -4.332031 L 3.757812 -3.601562 C 3.429688 -3.835938 3.074219 -3.949219 2.699219 -3.949219 C 2.246094 -3.949219 1.871094 -3.785156 1.582031 -3.460938 C 1.292969 -3.136719 1.144531 -2.707031 1.144531 -2.179688 C 1.144531 -1.65625 1.28125 -1.246094 1.554688 -0.945312 C 1.828125 -0.644531 2.195312 -0.496094 2.65625 -0.496094 C 3.042969 -0.496094 3.410156 -0.625 3.75 -0.882812 Z "/>
</g>
<g id="glyph-0-5">
<path d="M 4.410156 0 L 3.410156 0 L 1.449219 -2.136719 L 1.433594 -2.136719 L 1.433594 0 L 0.71875 0 L 0.71875 -6.582031 L 1.433594 -6.582031 L 1.433594 -2.410156 L 1.449219 -2.410156 L 3.316406 -4.445312 L 4.25 -4.445312 L 2.1875 -2.300781 Z "/>
</g>
<g id="glyph-0-6">
<path d="M 4.292969 -2.042969 L 1.15625 -2.042969 C 1.167969 -1.550781 1.300781 -1.167969 1.554688 -0.898438 C 1.808594 -0.628906 2.160156 -0.496094 2.605469 -0.496094 C 3.105469 -0.496094 3.566406 -0.660156 3.984375 -0.988281 L 3.984375 -0.320312 C 3.59375 -0.0390625 3.078125 0.105469 2.433594 0.105469 C 1.808594 0.105469 1.3125 -0.0976562 0.953125 -0.5 C 0.597656 -0.90625 0.417969 -1.472656 0.417969 -2.203125 C 0.417969 -2.898438 0.613281 -3.460938 1.003906 -3.894531 C 1.398438 -4.332031 1.882812 -4.550781 2.464844 -4.550781 C 3.046875 -4.550781 3.496094 -4.359375 3.816406 -3.984375 C 4.132812 -3.609375 4.292969 -3.085938 4.292969 -2.417969 L 4.292969 -2.042969 M 3.5625 -2.648438 C 3.5625 -3.058594 3.460938 -3.378906 3.265625 -3.605469 C 3.070312 -3.835938 2.800781 -3.949219 2.453125 -3.949219 C 2.117188 -3.949219 1.832031 -3.828125 1.597656 -3.589844 C 1.363281 -3.347656 1.21875 -3.035156 1.164062 -2.648438 Z "/>
</g>
<g id="glyph-0-7">
<path d="M 1.433594 0 L 0.71875 0 L 0.71875 -6.582031 L 1.433594 -6.582031 Z "/>
</g>
<g id="glyph-0-8">
<path d="M 5.050781 -0.261719 C 4.59375 -0.015625 4.019531 0.105469 3.332031 0.105469 C 2.449219 0.105469 1.738281 -0.179688 1.207031 -0.75 C 0.675781 -1.320312 0.40625 -2.070312 0.40625 -2.996094 C 0.40625 -3.992188 0.707031 -4.792969 1.304688 -5.410156 C 1.90625 -6.023438 2.664062 -6.328125 3.585938 -6.328125 C 4.175781 -6.328125 4.664062 -6.242188 5.050781 -6.074219 L 5.050781 -5.296875 C 4.605469 -5.542969 4.113281 -5.667969 3.578125 -5.667969 C 2.863281 -5.667969 2.28125 -5.429688 1.839844 -4.953125 C 1.394531 -4.476562 1.171875 -3.835938 1.171875 -3.039062 C 1.171875 -2.28125 1.378906 -1.675781 1.792969 -1.226562 C 2.210938 -0.777344 2.753906 -0.550781 3.429688 -0.550781 C 4.054688 -0.550781 4.59375 -0.691406 5.050781 -0.96875 Z "/>
</g>
<g id="glyph-0-9">
<path d="M 2.578125 0.105469 C 1.921875 0.105469 1.398438 -0.101562 1.003906 -0.519531 C 0.613281 -0.933594 0.417969 -1.484375 0.417969 -2.171875 C 0.417969 -2.917969 0.621094 -3.5 1.027344 -3.917969 C 1.4375 -4.339844 1.988281 -4.550781 2.683594 -4.550781 C 3.34375 -4.550781 3.863281 -4.34375 4.234375 -3.9375 C 4.605469 -3.527344 4.792969 -2.964844 4.792969 -2.238281 C 4.792969 -1.53125 4.589844 -0.960938 4.191406 -0.535156 C 3.789062 -0.109375 3.253906 0.105469 2.578125 0.105469 M 2.628906 -3.949219 C 2.171875 -3.949219 1.8125 -3.792969 1.546875 -3.484375 C 1.277344 -3.171875 1.144531 -2.742188 1.144531 -2.195312 C 1.144531 -1.667969 1.28125 -1.253906 1.550781 -0.949219 C 1.820312 -0.648438 2.179688 -0.496094 2.628906 -0.496094 C 3.089844 -0.496094 3.445312 -0.644531 3.691406 -0.941406 C 3.9375 -1.238281 4.0625 -1.664062 4.0625 -2.214844 C 4.0625 -2.769531 3.9375 -3.199219 3.691406 -3.5 C 3.445312 -3.800781 3.089844 -3.949219 2.628906 -3.949219 Z "/>
</g>
<g id="glyph-0-10">
<path d="M 3.039062 -3.722656 C 2.914062 -3.820312 2.734375 -3.867188 2.5 -3.867188 C 2.195312 -3.867188 1.941406 -3.722656 1.738281 -3.4375 C 1.535156 -3.152344 1.433594 -2.761719 1.433594 -2.265625 L 1.433594 0 L 0.71875 0 L 0.71875 -4.445312 L 1.433594 -4.445312 L 1.433594 -3.527344 L 1.449219 -3.527344 C 1.550781 -3.839844 1.707031 -4.085938 1.914062 -4.261719 C 2.121094 -4.433594 2.355469 -4.523438 2.613281 -4.523438 C 2.796875 -4.523438 2.941406 -4.503906 3.039062 -4.460938 Z "/>
</g>
<g id="glyph-0-11">
<path d="M 3.902344 0 L 3.191406 0 L 3.191406 -0.695312 L 3.171875 -0.695312 C 2.863281 -0.160156 2.40625 0.105469 1.804688 0.105469 C 1.363281 0.105469 1.015625 -0.0117188 0.765625 -0.246094 C 0.515625 -0.480469 0.390625 -0.792969 0.390625 -1.179688 C 0.390625 -2.011719 0.878906 -2.496094 1.859375 -2.628906 L 3.191406 -2.816406 C 3.191406 -3.570312 2.886719 -3.949219 2.273438 -3.949219 C 1.738281 -3.949219 1.253906 -3.765625 0.824219 -3.402344 L 0.824219 -4.132812 C 1.261719 -4.410156 1.765625 -4.550781 2.335938 -4.550781 C 3.378906 -4.550781 3.902344 -3.996094 3.902344 -2.890625 L 3.902344 0 M 3.191406 -2.25 L 2.117188 -2.101562 C 1.789062 -2.054688 1.539062 -1.972656 1.371094 -1.855469 C 1.203125 -1.738281 1.121094 -1.53125 1.121094 -1.234375 C 1.121094 -1.015625 1.195312 -0.839844 1.351562 -0.699219 C 1.507812 -0.5625 1.714844 -0.496094 1.96875 -0.496094 C 2.324219 -0.496094 2.613281 -0.617188 2.84375 -0.867188 C 3.074219 -1.113281 3.191406 -1.425781 3.191406 -1.804688 Z "/>
</g>
<g id="glyph-0-12">
<path d="M 4.257812 -4.445312 L 2.214844 0.710938 C 1.847656 1.632812 1.335938 2.09375 0.675781 2.09375 C 0.492188 2.09375 0.335938 2.074219 0.210938 2.035156 L 0.210938 1.398438 C 0.367188 1.449219 0.507812 1.476562 0.632812 1.476562 C 0.992188 1.476562 1.261719 1.261719 1.441406 0.832031 L 1.796875 -0.0078125 L 0.0625 -4.445312 L 0.851562 -4.445312 L 2.054688 -1.023438 C 2.066406 -0.980469 2.097656 -0.867188 2.144531 -0.6875 L 2.171875 -0.6875 C 2.183594 -0.753906 2.214844 -0.863281 2.257812 -1.015625 L 3.519531 -4.445312 Z "/>
</g>
<g id="glyph-0-13">
<path d="M 5.632812 0 L 4.828125 0 L 4.167969 -1.746094 L 1.527344 -1.746094 L 0.90625 0 L 0.09375 0 L 2.484375 -6.222656 L 3.238281 -6.222656 L 5.632812 0 M 3.929688 -2.398438 L 2.953125 -5.050781 C 2.917969 -5.140625 2.886719 -5.277344 2.855469 -5.46875 L 2.839844 -5.46875 C 2.808594 -5.292969 2.777344 -5.152344 2.738281 -5.050781 L 1.769531 -2.398438 Z "/>
</g>
<g id="glyph-0-14">
<path d="M 4.113281 0 L 0.816406 0 L 0.816406 -6.222656 L 3.976562 -6.222656 L 3.976562 -5.566406 L 1.546875 -5.566406 L 1.546875 -3.492188 L 3.792969 -3.492188 L 3.792969 -2.839844 L 1.546875 -2.839844 L 1.546875 -0.660156 L 4.113281 -0.660156 Z "/>
</g>
<g id="glyph-0-15">
<path d="M 5.277344 0 L 4.410156 0 L 3.367188 -1.746094 C 3.273438 -1.90625 3.179688 -2.046875 3.089844 -2.160156 C 3 -2.273438 2.910156 -2.367188 2.816406 -2.4375 C 2.722656 -2.511719 2.621094 -2.566406 2.511719 -2.597656 C 2.402344 -2.632812 2.28125 -2.648438 2.144531 -2.648438 L 1.546875 -2.648438 L 1.546875 0 L 0.816406 0 L 0.816406 -6.222656 L 2.671875 -6.222656 C 2.945312 -6.222656 3.195312 -6.191406 3.425781 -6.121094 C 3.65625 -6.054688 3.855469 -5.949219 4.027344 -5.8125 C 4.195312 -5.671875 4.328125 -5.5 4.421875 -5.292969 C 4.519531 -5.085938 4.566406 -4.84375 4.566406 -4.566406 C 4.566406 -4.347656 4.535156 -4.148438 4.46875 -3.96875 C 4.402344 -3.789062 4.3125 -3.628906 4.191406 -3.484375 C 4.070312 -3.34375 3.925781 -3.222656 3.757812 -3.121094 C 3.585938 -3.023438 3.398438 -2.945312 3.1875 -2.890625 L 3.1875 -2.875 C 3.289062 -2.828125 3.378906 -2.773438 3.457031 -2.714844 C 3.535156 -2.65625 3.605469 -2.585938 3.675781 -2.503906 C 3.746094 -2.421875 3.816406 -2.332031 3.882812 -2.230469 C 3.949219 -2.125 4.027344 -2.007812 4.109375 -1.871094 L 5.277344 0 M 1.546875 -5.566406 L 1.546875 -3.308594 L 2.535156 -3.308594 C 2.71875 -3.308594 2.886719 -3.335938 3.039062 -3.390625 C 3.195312 -3.445312 3.328125 -3.523438 3.441406 -3.625 C 3.554688 -3.730469 3.644531 -3.855469 3.707031 -4.003906 C 3.769531 -4.152344 3.800781 -4.320312 3.800781 -4.503906 C 3.800781 -4.839844 3.695312 -5.097656 3.480469 -5.285156 C 3.261719 -5.472656 2.953125 -5.566406 2.542969 -5.566406 Z "/>
</g>
<g id="glyph-0-16">
<path d="M 5.113281 0 L 4.222656 0 L 2.789062 -2.382812 C 2.746094 -2.457031 2.699219 -2.558594 2.648438 -2.691406 L 2.628906 -2.691406 C 2.601562 -2.625 2.550781 -2.523438 2.484375 -2.382812 L 1.007812 0 L 0.113281 0 L 2.195312 -3.128906 L 0.277344 -6.222656 L 1.171875 -6.222656 L 2.445312 -4.035156 C 2.527344 -3.890625 2.601562 -3.746094 2.664062 -3.601562 L 2.683594 -3.601562 C 2.773438 -3.792969 2.855469 -3.945312 2.925781 -4.054688 L 4.25 -6.222656 L 5.085938 -6.222656 L 3.128906 -3.136719 Z "/>
</g>
<g id="glyph-0-17">
<path d="M 4.136719 -1.761719 C 4.136719 -1.480469 4.082031 -1.226562 3.976562 -0.996094 C 3.871094 -0.765625 3.722656 -0.570312 3.53125 -0.40625 C 3.339844 -0.242188 3.109375 -0.117188 2.839844 -0.0273438 C 2.570312 0.0625 2.273438 0.109375 1.949219 0.109375 C 1.355469 0.109375 0.882812 -0.00390625 0.535156 -0.230469 L 0.535156 -0.992188 C 0.953125 -0.664062 1.433594 -0.5 1.976562 -0.5 C 2.191406 -0.5 2.386719 -0.527344 2.5625 -0.582031 C 2.738281 -0.636719 2.886719 -0.714844 3.015625 -0.820312 C 3.140625 -0.925781 3.238281 -1.050781 3.304688 -1.199219 C 3.375 -1.34375 3.40625 -1.511719 3.40625 -1.695312 C 3.40625 -2.511719 2.828125 -2.917969 1.671875 -2.917969 L 1.15625 -2.917969 L 1.15625 -3.519531 L 1.644531 -3.519531 C 2.667969 -3.519531 3.179688 -3.902344 3.179688 -4.667969 C 3.179688 -5.371094 2.789062 -5.726562 2.007812 -5.726562 C 1.570312 -5.726562 1.15625 -5.578125 0.773438 -5.28125 L 0.773438 -5.972656 C 1.167969 -6.210938 1.640625 -6.328125 2.1875 -6.328125 C 2.449219 -6.328125 2.683594 -6.292969 2.894531 -6.21875 C 3.105469 -6.148438 3.289062 -6.046875 3.4375 -5.917969 C 3.589844 -5.785156 3.703125 -5.628906 3.785156 -5.449219 C 3.871094 -5.265625 3.910156 -5.0625 3.910156 -4.84375 C 3.910156 -4.023438 3.496094 -3.5 2.667969 -3.265625 L 2.667969 -3.246094 C 2.878906 -3.222656 3.074219 -3.171875 3.253906 -3.09375 C 3.433594 -3.011719 3.589844 -2.910156 3.71875 -2.78125 C 3.851562 -2.65625 3.953125 -2.503906 4.027344 -2.332031 C 4.097656 -2.160156 4.136719 -1.96875 4.136719 -1.761719 Z "/>
</g>
<g id="glyph-0-18">
<path d="M 4.207031 -1.902344 C 4.207031 -1.597656 4.152344 -1.324219 4.050781 -1.078125 C 3.945312 -0.832031 3.796875 -0.621094 3.605469 -0.441406 C 3.414062 -0.265625 3.179688 -0.128906 2.90625 -0.0351562 C 2.636719 0.0625 2.332031 0.109375 2 0.109375 C 1.421875 0.109375 0.992188 0.0234375 0.710938 -0.152344 L 0.710938 -0.90625 C 1.132812 -0.636719 1.566406 -0.5 2.007812 -0.5 C 2.234375 -0.5 2.4375 -0.53125 2.621094 -0.597656 C 2.800781 -0.664062 2.953125 -0.757812 3.082031 -0.875 C 3.210938 -0.996094 3.308594 -1.136719 3.375 -1.304688 C 3.441406 -1.472656 3.476562 -1.65625 3.476562 -1.859375 C 3.476562 -2.261719 3.339844 -2.582031 3.070312 -2.808594 C 2.796875 -3.039062 2.402344 -3.15625 1.882812 -3.15625 C 1.800781 -3.15625 1.710938 -3.152344 1.617188 -3.152344 C 1.527344 -3.148438 1.433594 -3.144531 1.339844 -3.140625 C 1.25 -3.136719 1.15625 -3.132812 1.070312 -3.125 C 0.980469 -3.121094 0.902344 -3.113281 0.828125 -3.101562 L 1.042969 -6.222656 L 3.917969 -6.222656 L 3.917969 -5.582031 L 1.65625 -5.582031 L 1.53125 -3.753906 C 1.625 -3.761719 1.722656 -3.765625 1.828125 -3.769531 C 1.929688 -3.773438 2.023438 -3.777344 2.105469 -3.777344 C 2.433594 -3.777344 2.730469 -3.734375 2.992188 -3.644531 C 3.25 -3.558594 3.472656 -3.433594 3.652344 -3.273438 C 3.832031 -3.113281 3.972656 -2.917969 4.066406 -2.683594 C 4.160156 -2.453125 4.207031 -2.191406 4.207031 -1.902344 Z "/>
</g>
<g id="glyph-0-19">
<path d="M 4.425781 -3.136719 C 4.425781 -2.617188 4.378906 -2.15625 4.285156 -1.753906 C 4.191406 -1.351562 4.054688 -1.011719 3.878906 -0.734375 C 3.699219 -0.460938 3.480469 -0.25 3.222656 -0.105469 C 2.964844 0.0351562 2.667969 0.109375 2.339844 0.109375 C 2.027344 0.109375 1.75 0.0390625 1.503906 -0.0976562 C 1.257812 -0.234375 1.054688 -0.433594 0.886719 -0.699219 C 0.71875 -0.960938 0.589844 -1.285156 0.503906 -1.667969 C 0.417969 -2.050781 0.375 -2.492188 0.375 -2.984375 C 0.375 -3.53125 0.417969 -4.011719 0.511719 -4.425781 C 0.601562 -4.84375 0.734375 -5.195312 0.910156 -5.476562 C 1.089844 -5.757812 1.308594 -5.96875 1.570312 -6.113281 C 1.832031 -6.257812 2.132812 -6.328125 2.46875 -6.328125 C 3.773438 -6.328125 4.425781 -5.265625 4.425781 -3.136719 M 3.699219 -3.070312 C 3.699219 -4.839844 3.277344 -5.726562 2.433594 -5.726562 C 1.546875 -5.726562 1.101562 -4.824219 1.101562 -3.019531 C 1.101562 -1.339844 1.539062 -0.5 2.410156 -0.5 C 3.269531 -0.5 3.699219 -1.355469 3.699219 -3.070312 Z "/>
</g>
</g>
</defs>
<g fill="rgb(100%, 100%, 100%)" fill-opacity="1">
<use xlink:href="#glyph-0-0" x="30" y="29.591797"/>
<use xlink:href="#glyph-0-1" x="34" y="29.591797"/>
<use xlink:href="#glyph-0-2" x="36" y="29.591797"/>
<use xlink:href="#glyph-0-3" x="43" y="29.591797"/>
<use xlink:href="#glyph-0-4" x="45" y="29.591797"/>
<use xlink:href="#glyph-0-5" x="49" y="29.591797"/>
<use xlink:href="#glyph-0-6" x="53" y="29.591797"/>
<use xlink:href="#glyph-0-7" x="58" y="29.591797"/>
<use xlink:href="#glyph-0-1" x="60" y="29.591797"/>
<use xlink:href="#glyph-0-8" x="62" y="29.591797"/>
<use xlink:href="#glyph-0-9" x="68" y="29.591797"/>
<use xlink:href="#glyph-0-1" x="73" y="29.591797"/>
<use xlink:href="#glyph-0-8" x="75" y="29.591797"/>
<use xlink:href="#glyph-0-10" x="81" y="29.591797"/>
<use xlink:href="#glyph-0-1" x="84" y="29.591797"/>
<use xlink:href="#glyph-0-11" x="86" y="29.591797"/>
<use xlink:href="#glyph-0-7" x="91" y="29.591797"/>
<use xlink:href="#glyph-0-7" x="93" y="29.591797"/>
<use xlink:href="#glyph-0-9" x="95" y="29.591797"/>
<use xlink:href="#glyph-0-12" x="100" y="29.591797"/>
<use xlink:href="#glyph-0-1" x="104" y="29.591797"/>
<use xlink:href="#glyph-0-13" x="106" y="29.591797"/>
<use xlink:href="#glyph-0-14" x="112" y="29.591797"/>
<use xlink:href="#glyph-0-15" x="116" y="29.591797"/>
<use xlink:href="#glyph-0-14" x="121" y="29.591797"/>
<use xlink:href="#glyph-0-16" x="125" y="29.591797"/>
<use xlink:href="#glyph-0-1" x="130" y="29.591797"/>
<use xlink:href="#glyph-0-17" x="132" y="29.591797"/>
<use xlink:href="#glyph-0-18" x="137" y="29.591797"/>
<use xlink:href="#glyph-0-19" x="142" y="29.591797"/>
</g>
</svg>
