<?xml version="1.0" encoding="UTF-8"?>
<svg xmlns="http://www.w3.org/2000/svg" xmlns:xlink="http://www.w3.org/1999/xlink" width="854" height="480" viewBox="0 0 854 480">
<defs>
<g>
<g id="glyph-0-0">
<path d="M 1.359375 -1.328125 C 1.136719 -1.328125 0.941406 -1.40625 0.777344 -1.566406 C 0.617188 -1.722656 0.535156 -1.917969 0.535156 -2.140625 C 0.535156 -2.367188 0.617188 -2.558594 0.777344 -2.722656 C 0.941406 -2.886719 1.136719 -2.96875 1.359375 -2.96875 C 1.585938 -2.96875 1.777344 -2.886719 1.9375 -2.722656 C 2.09375 -2.5625 2.175781 -2.367188 2.175781 -2.140625 C 2.175781 -1.917969 2.09375 -1.722656 1.9375 -1.566406 C 1.777344 -1.40625 1.585938 -1.328125 1.359375 -1.328125 Z "/>
</g>
<g id="glyph-0-1">
</g>
<g id="glyph-0-2">
<path d="M 3.289062 -4.359375 C 3.214844 -4.234375 3.128906 -4.082031 3.027344 -3.894531 C 2.929688 -3.710938 2.820312 -3.503906 2.707031 -3.273438 C 2.59375 -3.042969 2.480469 -2.796875 2.363281 -2.53125 C 2.246094 -2.269531 2.136719 -1.996094 2.035156 -1.710938 C 1.933594 -1.429688 1.84375 -1.144531 1.765625 -0.855469 C 1.6875 -0.566406 1.632812 -0.28125 1.597656 0 L 1.023438 0 C 1.0625 -0.277344 1.125 -0.5625 1.207031 -0.851562 C 1.289062 -1.140625 1.378906 -1.425781 1.484375 -1.703125 C 1.585938 -1.984375 1.695312 -2.25 1.808594 -2.507812 C 1.925781 -2.769531 2.035156 -3.003906 2.144531 -3.222656 C 2.253906 -3.441406 2.351562 -3.632812 2.441406 -3.796875 C 2.53125 -3.964844 2.605469 -4.09375 2.660156 -4.1875 L 0.320312 -4.1875 L 0.320312 -4.667969 L 3.289062 -4.667969 Z "/>
</g>
<g id="glyph-0-3">
<path d="M 0.292969 -1.300781 C 0.292969 -1.425781 0.3125 -1.550781 0.351562 -1.675781 C 0.390625 -1.800781 0.445312 -1.917969 0.519531 -2.023438 C 0.59375 -2.132812 0.683594 -2.230469 0.789062 -2.320312 C 0.898438 -2.410156 1.019531 -2.480469 1.15625 -2.53125 C 0.953125 -2.644531 0.792969 -2.789062 0.671875 -2.96875 C 0.554688 -3.144531 0.496094 -3.339844 0.496094 -3.554688 C 0.496094 -3.726562 0.527344 -3.882812 0.59375 -4.03125 C 0.660156 -4.175781 0.75 -4.300781 0.867188 -4.40625 C 0.984375 -4.515625 1.125 -4.597656 1.285156 -4.65625 C 1.445312 -4.714844 1.621094 -4.746094 1.804688 -4.746094 C 1.996094 -4.746094 2.171875 -4.714844 2.332031 -4.65625 C 2.492188 -4.59375 2.628906 -4.511719 2.746094 -4.40625 C 2.863281 -4.296875 2.957031 -4.171875 3.019531 -4.027344 C 3.085938 -3.882812 3.117188 -3.722656 3.117188 -3.554688 C 3.117188 -3.339844 3.058594 -3.144531 2.9375 -2.96875 C 2.820312 -2.789062 2.660156 -2.644531 2.464844 -2.53125 C 2.597656 -2.480469 2.71875 -2.410156 2.824219 -2.320312 C 2.933594 -2.230469 3.019531 -2.132812 3.09375 -2.023438 C 3.167969 -1.917969 3.222656 -1.800781 3.261719 -1.675781 C 3.300781 -1.550781 3.320312 -1.425781 3.320312 -1.300781 C 3.320312 -1.097656 3.285156 -0.910156 3.210938 -0.742188 C 3.136719 -0.574219 3.03125 -0.429688 2.898438 -0.308594 C 2.765625 -0.1875 2.605469 -0.09375 2.421875 -0.0273438 C 2.234375 0.0429688 2.03125 0.0742188 1.804688 0.0742188 C 1.585938 0.0742188 1.382812 0.0429688 1.199219 -0.0273438 C 1.011719 -0.09375 0.855469 -0.1875 0.71875 -0.308594 C 0.585938 -0.429688 0.480469 -0.574219 0.40625 -0.742188 C 0.332031 -0.910156 0.292969 -1.097656 0.292969 -1.300781 M 0.871094 -1.347656 C 0.871094 -1.203125 0.894531 -1.070312 0.9375 -0.953125 C 0.984375 -0.835938 1.046875 -0.738281 1.128906 -0.652344 C 1.210938 -0.570312 1.308594 -0.507812 1.425781 -0.464844 C 1.539062 -0.417969 1.667969 -0.398438 1.808594 -0.398438 C 1.945312 -0.398438 2.074219 -0.417969 2.1875 -0.464844 C 2.300781 -0.511719 2.402344 -0.574219 2.484375 -0.65625 C 2.570312 -0.738281 2.632812 -0.839844 2.679688 -0.957031 C 2.726562 -1.074219 2.75 -1.203125 2.75 -1.347656 C 2.75 -1.476562 2.726562 -1.601562 2.683594 -1.714844 C 2.640625 -1.828125 2.574219 -1.929688 2.492188 -2.015625 C 2.410156 -2.101562 2.3125 -2.171875 2.195312 -2.21875 C 2.082031 -2.269531 1.953125 -2.296875 1.808594 -2.296875 C 1.675781 -2.296875 1.550781 -2.273438 1.4375 -2.226562 C 1.324219 -2.179688 1.222656 -2.113281 1.140625 -2.03125 C 1.058594 -1.945312 0.992188 -1.847656 0.945312 -1.730469 C 0.894531 -1.613281 0.871094 -1.488281 0.871094 -1.347656 M 1.039062 -3.511719 C 1.039062 -3.402344 1.058594 -3.300781 1.097656 -3.203125 C 1.140625 -3.109375 1.195312 -3.027344 1.265625 -2.957031 C 1.335938 -2.886719 1.417969 -2.832031 1.511719 -2.792969 C 1.605469 -2.75 1.703125 -2.730469 1.808594 -2.730469 C 1.917969 -2.730469 2.015625 -2.75 2.109375 -2.792969 C 2.207031 -2.835938 2.289062 -2.890625 2.355469 -2.960938 C 2.425781 -3.03125 2.480469 -3.113281 2.523438 -3.207031 C 2.5625 -3.300781 2.585938 -3.402344 2.585938 -3.511719 C 2.585938 -3.625 2.566406 -3.730469 2.523438 -3.824219 C 2.484375 -3.921875 2.429688 -4.003906 2.359375 -4.070312 C 2.289062 -4.140625 2.207031 -4.195312 2.113281 -4.238281 C 2.019531 -4.277344 1.917969 -4.296875 1.808594 -4.296875 C 1.695312 -4.296875 1.589844 -4.277344 1.496094 -4.234375 C 1.402344 -4.195312 1.320312 -4.136719 1.25 -4.066406 C 1.183594 -3.996094 1.128906 -3.914062 1.09375 -3.816406 C 1.058594 -3.722656 1.039062 -3.621094 1.039062 -3.511719 Z "/>
</g>
<g id="glyph-0-4">
<path d="M 1.316406 -2.328125 C 0.992188 -2.328125 0.738281 -2.433594 0.546875 -2.644531 C 0.355469 -2.855469 0.261719 -3.140625 0.261719 -3.492188 C 0.261719 -3.878906 0.359375 -4.183594 0.5625 -4.40625 C 0.765625 -4.628906 1.039062 -4.738281 1.378906 -4.738281 C 1.710938 -4.738281 1.96875 -4.636719 2.152344 -4.429688 C 2.335938 -4.222656 2.429688 -3.933594 2.429688 -3.5625 C 2.429688 -3.1875 2.324219 -2.890625 2.121094 -2.664062 C 1.914062 -2.441406 1.648438 -2.328125 1.316406 -2.328125 M 1.359375 -4.382812 C 1.15625 -4.382812 0.992188 -4.304688 0.871094 -4.152344 C 0.753906 -4 0.691406 -3.789062 0.691406 -3.523438 C 0.691406 -3.257812 0.75 -3.054688 0.867188 -2.910156 C 0.984375 -2.761719 1.144531 -2.6875 1.347656 -2.6875 C 1.550781 -2.6875 1.710938 -2.765625 1.824219 -2.917969 C 1.941406 -3.070312 2 -3.277344 2 -3.546875 C 2 -3.8125 1.941406 -4.015625 1.828125 -4.160156 C 1.714844 -4.308594 1.558594 -4.382812 1.359375 -4.382812 M 4.441406 -4.667969 L 1.445312 0.03125 L 0.980469 0.03125 L 3.972656 -4.667969 L 4.441406 -4.667969 M 4.09375 0.0703125 C 3.773438 0.0703125 3.519531 -0.0351562 3.328125 -0.246094 C 3.136719 -0.460938 3.039062 -0.742188 3.039062 -1.09375 C 3.039062 -1.480469 3.140625 -1.785156 3.347656 -2.011719 C 3.550781 -2.234375 3.820312 -2.347656 4.160156 -2.347656 C 4.488281 -2.347656 4.746094 -2.242188 4.929688 -2.035156 C 5.117188 -1.824219 5.207031 -1.535156 5.207031 -1.160156 C 5.207031 -0.789062 5.105469 -0.488281 4.902344 -0.265625 C 4.695312 -0.0390625 4.425781 0.0703125 4.09375 0.0703125 M 4.140625 -1.980469 C 3.933594 -1.980469 3.769531 -1.902344 3.652344 -1.75 C 3.53125 -1.597656 3.472656 -1.390625 3.472656 -1.121094 C 3.472656 -0.863281 3.53125 -0.660156 3.648438 -0.511719 C 3.765625 -0.367188 3.925781 -0.292969 4.128906 -0.292969 C 4.332031 -0.292969 4.492188 -0.371094 4.605469 -0.523438 C 4.722656 -0.675781 4.777344 -0.886719 4.777344 -1.152344 C 4.777344 -1.417969 4.722656 -1.621094 4.609375 -1.765625 C 4.492188 -1.90625 4.339844 -1.980469 4.140625 -1.980469 Z "/>
</g>
<g id="glyph-0-5">
<path d="M 2.980469 -4.171875 L 1.160156 -4.171875 L 1.160156 -2.558594 L 2.84375 -2.558594 L 2.84375 -2.066406 L 1.160156 -2.066406 L 1.160156 0 L 0.613281 0 L 0.613281 -4.667969 L 2.980469 -4.667969 Z "/>
</g>
<g id="glyph-0-6">
<path d="M 3.21875 -1.53125 L 0.867188 -1.53125 C 0.875 -1.164062 0.972656 -0.875 1.164062 -0.671875 C 1.355469 -0.472656 1.617188 -0.371094 1.953125 -0.371094 C 2.328125 -0.371094 2.671875 -0.496094 2.988281 -0.742188 L 2.988281 -0.242188 C 2.695312 -0.0273438 2.308594 0.078125 1.824219 0.078125 C 1.355469 0.078125 0.984375 -0.0742188 0.714844 -0.375 C 0.445312 -0.679688 0.3125 -1.105469 0.3125 -1.652344 C 0.3125 -2.171875 0.460938 -2.59375 0.753906 -2.921875 C 1.046875 -3.25 1.414062 -3.410156 1.847656 -3.410156 C 2.285156 -3.410156 2.621094 -3.269531 2.859375 -2.988281 C 3.101562 -2.707031 3.21875 -2.3125 3.21875 -1.8125 L 3.21875 -1.53125 M 2.671875 -1.984375 C 2.671875 -2.292969 2.597656 -2.535156 2.449219 -2.703125 C 2.304688 -2.875 2.101562 -2.960938 1.839844 -2.960938 C 1.585938 -2.960938 1.375 -2.871094 1.199219 -2.691406 C 1.023438 -2.511719 0.914062 -2.277344 0.871094 -1.984375 Z "/>
</g>
</g>
</defs>
<g fill="rgb(86.666667%, 86.666667%, 86.666667%)" fill-opacity="1">
<use xlink:href="#glyph-0-0" x="30" y="27.193359"/>
<use xlink:href="#glyph-0-1" x="33" y="27.193359"/>
<use xlink:href="#glyph-0-2" x="35" y="27.193359"/>
<use xlink:href="#glyph-0-3" x="39" y="27.193359"/>
<use xlink:href="#glyph-0-4" x="43" y="27.193359"/>
<use xlink:href="#glyph-0-1" x="48" y="27.193359"/>
<use xlink:href="#glyph-0-5" x="50" y="27.193359"/>
<use xlink:href="#glyph-0-6" x="53" y="27.193359"/>
</g>
</svg>
