<?xml version="1.0" encoding="UTF-8"?>
<svg xmlns="http://www.w3.org/2000/svg" xmlns:xlink="http://www.w3.org/1999/xlink" width="854" height="480" viewBox="0 0 854 480">
<defs>
<g>
<g id="glyph-0-0">
<path d="M 5.28125 0 L 4.523438 0 L 3.90625 -1.636719 L 1.433594 -1.636719 L 0.851562 0 L 0.0898438 0 L 2.328125 -5.835938 L 3.035156 -5.835938 L 5.28125 0 M 3.683594 -2.25 L 2.765625 -4.734375 C 2.738281 -4.816406 2.707031 -4.949219 2.675781 -5.125 L 2.660156 -5.125 C 2.632812 -4.960938 2.601562 -4.832031 2.566406 -4.734375 L 1.660156 -2.25 Z "/>
</g>
<g id="glyph-0-1">
<path d="M 0.421875 -0.152344 L 0.421875 -0.867188 C 0.785156 -0.597656 1.1875 -0.464844 1.625 -0.464844 C 2.210938 -0.464844 2.503906 -0.660156 2.503906 -1.050781 C 2.503906 -1.160156 2.476562 -1.253906 2.425781 -1.332031 C 2.378906 -1.410156 2.308594 -1.476562 2.222656 -1.539062 C 2.136719 -1.597656 2.039062 -1.652344 1.921875 -1.699219 C 1.808594 -1.746094 1.683594 -1.796875 1.550781 -1.847656 C 1.367188 -1.921875 1.203125 -1.996094 1.0625 -2.070312 C 0.925781 -2.144531 0.808594 -2.226562 0.714844 -2.320312 C 0.621094 -2.414062 0.550781 -2.519531 0.503906 -2.640625 C 0.453125 -2.761719 0.429688 -2.898438 0.429688 -3.058594 C 0.429688 -3.253906 0.476562 -3.429688 0.566406 -3.578125 C 0.65625 -3.730469 0.773438 -3.855469 0.921875 -3.957031 C 1.074219 -4.058594 1.242188 -4.136719 1.433594 -4.1875 C 1.625 -4.238281 1.824219 -4.265625 2.027344 -4.265625 C 2.386719 -4.265625 2.710938 -4.203125 2.996094 -4.078125 L 2.996094 -3.402344 C 2.6875 -3.601562 2.335938 -3.703125 1.9375 -3.703125 C 1.8125 -3.703125 1.699219 -3.6875 1.597656 -3.660156 C 1.5 -3.632812 1.414062 -3.589844 1.339844 -3.539062 C 1.269531 -3.488281 1.214844 -3.425781 1.175781 -3.355469 C 1.132812 -3.28125 1.113281 -3.203125 1.113281 -3.117188 C 1.113281 -3.007812 1.132812 -2.917969 1.175781 -2.84375 C 1.214844 -2.769531 1.269531 -2.707031 1.347656 -2.648438 C 1.421875 -2.59375 1.515625 -2.539062 1.625 -2.496094 C 1.730469 -2.449219 1.855469 -2.398438 1.992188 -2.34375 C 2.179688 -2.273438 2.34375 -2.199219 2.488281 -2.125 C 2.636719 -2.050781 2.761719 -1.96875 2.863281 -1.875 C 2.96875 -1.78125 3.046875 -1.671875 3.101562 -1.550781 C 3.160156 -1.429688 3.1875 -1.28125 3.1875 -1.113281 C 3.1875 -0.910156 3.140625 -0.730469 3.050781 -0.578125 C 2.957031 -0.425781 2.835938 -0.300781 2.683594 -0.199219 C 2.535156 -0.0976562 2.359375 -0.0234375 2.160156 0.0234375 C 1.960938 0.0742188 1.753906 0.0976562 1.539062 0.0976562 C 1.109375 0.0976562 0.738281 0.015625 0.421875 -0.152344 Z "/>
</g>
<g id="glyph-0-2">
</g>
<g id="glyph-0-3">
<path d="M 4.042969 0 L 3.378906 0 L 3.378906 -0.660156 L 3.359375 -0.660156 C 3.085938 -0.15625 2.65625 0.0976562 2.074219 0.0976562 C 1.082031 0.0976562 0.585938 -0.492188 0.585938 -1.675781 L 0.585938 -4.167969 L 1.25 -4.167969 L 1.25 -1.78125 C 1.25 -0.902344 1.585938 -0.464844 2.257812 -0.464844 C 2.582031 -0.464844 2.851562 -0.582031 3.0625 -0.824219 C 3.273438 -1.0625 3.378906 -1.378906 3.378906 -1.765625 L 3.378906 -4.167969 L 4.042969 -4.167969 Z "/>
</g>
<g id="glyph-0-4">
<path d="M 1.359375 -0.601562 L 1.34375 -0.601562 L 1.34375 1.917969 L 0.675781 1.917969 L 0.675781 -4.167969 L 1.34375 -4.167969 L 1.34375 -3.433594 L 1.359375 -3.433594 C 1.6875 -3.988281 2.167969 -4.265625 2.800781 -4.265625 C 3.335938 -4.265625 3.753906 -4.078125 4.058594 -3.703125 C 4.359375 -3.332031 4.507812 -2.832031 4.507812 -2.207031 C 4.507812 -1.507812 4.339844 -0.949219 4 -0.53125 C 3.660156 -0.113281 3.195312 0.0976562 2.609375 0.0976562 C 2.070312 0.0976562 1.652344 -0.136719 1.359375 -0.601562 M 1.34375 -2.28125 L 1.34375 -1.699219 C 1.34375 -1.355469 1.453125 -1.0625 1.679688 -0.824219 C 1.902344 -0.582031 2.1875 -0.464844 2.53125 -0.464844 C 2.933594 -0.464844 3.25 -0.617188 3.480469 -0.925781 C 3.710938 -1.238281 3.824219 -1.667969 3.824219 -2.21875 C 3.824219 -2.679688 3.71875 -3.046875 3.503906 -3.308594 C 3.289062 -3.570312 3 -3.703125 2.632812 -3.703125 C 2.246094 -3.703125 1.933594 -3.566406 1.695312 -3.296875 C 1.460938 -3.027344 1.34375 -2.691406 1.34375 -2.28125 Z "/>
</g>
<g id="glyph-0-5">
<path d="M 1.34375 0 L 0.675781 0 L 0.675781 -6.167969 L 1.34375 -6.167969 Z "/>
</g>
<g id="glyph-0-6">
<path d="M 1.015625 -5.222656 C 0.898438 -5.222656 0.796875 -5.265625 0.710938 -5.347656 C 0.628906 -5.429688 0.585938 -5.53125 0.585938 -5.65625 C 0.585938 -5.78125 0.628906 -5.882812 0.710938 -5.96875 C 0.796875 -6.050781 0.898438 -6.089844 1.015625 -6.089844 C 1.140625 -6.089844 1.242188 -6.050781 1.328125 -5.96875 C 1.414062 -5.882812 1.457031 -5.78125 1.457031 -5.65625 C 1.457031 -5.535156 1.414062 -5.433594 1.328125 -5.351562 C 1.242188 -5.265625 1.140625 -5.222656 1.015625 -5.222656 M 1.34375 0 L 0.675781 0 L 0.675781 -4.167969 L 1.34375 -4.167969 Z "/>
</g>
<g id="glyph-0-7">
<path d="M 4.023438 -1.917969 L 1.082031 -1.917969 C 1.09375 -1.453125 1.21875 -1.09375 1.457031 -0.84375 C 1.695312 -0.589844 2.023438 -0.464844 2.441406 -0.464844 C 2.910156 -0.464844 3.34375 -0.617188 3.734375 -0.925781 L 3.734375 -0.300781 C 3.367188 -0.0351562 2.886719 0.0976562 2.28125 0.0976562 C 1.695312 0.0976562 1.230469 -0.0898438 0.894531 -0.46875 C 0.558594 -0.847656 0.390625 -1.378906 0.390625 -2.066406 C 0.390625 -2.714844 0.574219 -3.242188 0.941406 -3.652344 C 1.308594 -4.058594 1.765625 -4.265625 2.3125 -4.265625 C 2.855469 -4.265625 3.277344 -4.089844 3.578125 -3.734375 C 3.875 -3.382812 4.023438 -2.894531 4.023438 -2.265625 L 4.023438 -1.917969 M 3.339844 -2.480469 C 3.339844 -2.867188 3.246094 -3.167969 3.0625 -3.382812 C 2.878906 -3.59375 2.625 -3.703125 2.300781 -3.703125 C 1.984375 -3.703125 1.71875 -3.589844 1.496094 -3.363281 C 1.277344 -3.140625 1.140625 -2.84375 1.089844 -2.480469 Z "/>
</g>
<g id="glyph-0-8">
<path d="M 4.230469 0 L 3.5625 0 L 3.5625 -0.707031 L 3.546875 -0.707031 C 3.238281 -0.171875 2.761719 0.0976562 2.117188 0.0976562 C 1.59375 0.0976562 1.175781 -0.0898438 0.859375 -0.460938 C 0.546875 -0.835938 0.390625 -1.34375 0.390625 -1.984375 C 0.390625 -2.675781 0.5625 -3.226562 0.910156 -3.640625 C 1.257812 -4.058594 1.722656 -4.265625 2.300781 -4.265625 C 2.871094 -4.265625 3.289062 -4.039062 3.546875 -3.589844 L 3.5625 -3.589844 L 3.5625 -6.167969 L 4.230469 -6.167969 L 4.230469 0 M 3.5625 -1.882812 L 3.5625 -2.5 C 3.5625 -2.835938 3.453125 -3.121094 3.230469 -3.351562 C 3.007812 -3.585938 2.726562 -3.703125 2.382812 -3.703125 C 1.976562 -3.703125 1.65625 -3.554688 1.425781 -3.253906 C 1.191406 -2.957031 1.074219 -2.542969 1.074219 -2.019531 C 1.074219 -1.539062 1.1875 -1.160156 1.410156 -0.882812 C 1.632812 -0.601562 1.933594 -0.464844 2.3125 -0.464844 C 2.683594 -0.464844 2.984375 -0.597656 3.214844 -0.867188 C 3.449219 -1.136719 3.5625 -1.472656 3.5625 -1.882812 Z "/>
</g>
<g id="glyph-0-9">
<path d="M 3.65625 0 L 2.992188 0 L 2.992188 -0.652344 L 2.972656 -0.652344 C 2.683594 -0.152344 2.257812 0.0976562 1.691406 0.0976562 C 1.277344 0.0976562 0.953125 -0.0117188 0.71875 -0.230469 C 0.484375 -0.453125 0.367188 -0.742188 0.367188 -1.105469 C 0.367188 -1.886719 0.824219 -2.339844 1.742188 -2.464844 L 2.992188 -2.640625 C 2.992188 -3.347656 2.703125 -3.703125 2.132812 -3.703125 C 1.628906 -3.703125 1.175781 -3.53125 0.773438 -3.191406 L 0.773438 -3.875 C 1.183594 -4.132812 1.65625 -4.265625 2.1875 -4.265625 C 3.167969 -4.265625 3.65625 -3.746094 3.65625 -2.710938 L 3.65625 0 M 2.992188 -2.109375 L 1.984375 -1.96875 C 1.675781 -1.925781 1.441406 -1.847656 1.285156 -1.738281 C 1.128906 -1.628906 1.050781 -1.433594 1.050781 -1.15625 C 1.050781 -0.953125 1.121094 -0.785156 1.265625 -0.65625 C 1.414062 -0.527344 1.605469 -0.464844 1.847656 -0.464844 C 2.179688 -0.464844 2.453125 -0.578125 2.667969 -0.8125 C 2.882812 -1.042969 2.992188 -1.335938 2.992188 -1.691406 Z "/>
</g>
<g id="glyph-0-10">
<path d="M 2.417969 0.0976562 C 1.800781 0.0976562 1.308594 -0.0976562 0.941406 -0.484375 C 0.574219 -0.875 0.390625 -1.390625 0.390625 -2.035156 C 0.390625 -2.734375 0.582031 -3.28125 0.964844 -3.675781 C 1.347656 -4.066406 1.863281 -4.265625 2.515625 -4.265625 C 3.136719 -4.265625 3.621094 -4.074219 3.96875 -3.691406 C 4.316406 -3.308594 4.492188 -2.777344 4.492188 -2.097656 C 4.492188 -1.433594 4.304688 -0.902344 3.929688 -0.503906 C 3.554688 -0.101562 3.050781 0.0976562 2.417969 0.0976562 M 2.464844 -3.703125 C 2.039062 -3.703125 1.699219 -3.558594 1.449219 -3.265625 C 1.199219 -2.972656 1.074219 -2.570312 1.074219 -2.058594 C 1.074219 -1.566406 1.199219 -1.175781 1.453125 -0.890625 C 1.703125 -0.605469 2.042969 -0.464844 2.464844 -0.464844 C 2.898438 -0.464844 3.230469 -0.605469 3.460938 -0.882812 C 3.691406 -1.164062 3.808594 -1.558594 3.808594 -2.074219 C 3.808594 -2.597656 3.691406 -2.996094 3.460938 -3.28125 C 3.230469 -3.5625 2.898438 -3.703125 2.464844 -3.703125 Z "/>
</g>
<g id="glyph-0-11">
<path d="M 3.992188 -4.167969 L 2.074219 0.667969 C 1.734375 1.53125 1.253906 1.960938 0.632812 1.960938 C 0.460938 1.960938 0.316406 1.945312 0.199219 1.910156 L 0.199219 1.308594 C 0.34375 1.359375 0.476562 1.382812 0.59375 1.382812 C 0.929688 1.382812 1.183594 1.183594 1.351562 0.78125 L 1.683594 -0.0078125 L 0.0585938 -4.167969 L 0.796875 -4.167969 L 1.925781 -0.960938 C 1.9375 -0.917969 1.964844 -0.8125 2.011719 -0.644531 L 2.035156 -0.644531 C 2.046875 -0.707031 2.074219 -0.8125 2.117188 -0.953125 L 3.300781 -4.167969 Z "/>
</g>
</g>
</defs>
<g fill="rgb(100%, 100%, 100%)" fill-opacity="1">
<use xlink:href="#glyph-0-0" x="30" y="28.992188"/>
<use xlink:href="#glyph-0-1" x="35" y="28.992188"/>
<use xlink:href="#glyph-0-2" x="39" y="28.992188"/>
<use xlink:href="#glyph-0-1" x="41" y="28.992188"/>
<use xlink:href="#glyph-0-3" x="45" y="28.992188"/>
<use xlink:href="#glyph-0-4" x="50" y="28.992188"/>
<use xlink:href="#glyph-0-4" x="55" y="28.992188"/>
<use xlink:href="#glyph-0-5" x="60" y="28.992188"/>
<use xlink:href="#glyph-0-6" x="62" y="28.992188"/>
<use xlink:href="#glyph-0-7" x="64" y="28.992188"/>
<use xlink:href="#glyph-0-8" x="68" y="28.992188"/>
<use xlink:href="#glyph-0-2" x="73" y="28.992188"/>
<use xlink:href="#glyph-0-9" x="75" y="28.992188"/>
<use xlink:href="#glyph-0-5" x="79" y="28.992188"/>
<use xlink:href="#glyph-0-5" x="81" y="28.992188"/>
<use xlink:href="#glyph-0-10" x="83" y="28.992188"/>
<use xlink:href="#glyph-0-11" x="88" y="28.992188"/>
</g>
</svg>
